<?xml version="1.0" encoding="UTF-8"?> <svg xmlns="http://www.w3.org/2000/svg" xmlns:xlink="http://www.w3.org/1999/xlink" width="143px" height="55px" viewBox="0 0 143 55" version="1.1"><!-- Generator: Sketch 56.1 (81669) - https://sketch.com --><title>logo</title><desc>Created with Sketch.</desc><defs><polygon id="path-1" points="0.000240336134 0.252282609 54.4231563 0.252282609 54.4231563 54.4021739 0.000240336134 54.4021739"></polygon></defs><g id="Symbols" stroke="none" stroke-width="1" fill="none" fill-rule="evenodd"><g id="nav/header" transform="translate(-191.000000, -11.000000)"><g id="Group-6"><g id="logo" transform="translate(191.000000, 11.000000)"><path d="M72.5591613,27.1322772 C72.5591613,26.2522772 72.4912664,25.4021685 72.3566782,24.5795598 C72.2208882,23.7581467 71.9889639,23.0287989 71.660905,22.3921141 C71.3322454,21.7542337 70.8912286,21.2448859 70.3372538,20.862875 C69.7826782,20.4802663 69.0935143,20.2895598 68.2691613,20.2895598 C67.8569849,20.2895598 67.4514176,20.3499402 67.051258,20.4712989 C66.6523,20.5926576 66.2461319,20.783962 65.8333546,21.0446141 C65.4211782,21.3046685 64.9897748,21.6496141 64.5391445,22.076462 C64.0879134,22.502712 63.6114471,23.0287989 63.1091445,23.6529293 L63.1091445,30.4950489 C63.9857706,31.5537989 64.8155311,32.361462 65.6020311,32.9222228 C66.3879303,33.4841793 67.2122832,33.763962 68.0756908,33.763962 C68.8748084,33.763962 69.5609681,33.5726576 70.1341697,33.1900489 C70.7073714,32.8086359 71.1712202,32.2980924 71.525716,31.6620054 C71.8796109,31.0253207 72.1403756,30.3109185 72.3080101,29.5211902 C72.4756445,28.7308641 72.5591613,27.933962 72.5591613,27.1322772 M75.8439555,26.7682011 C75.8439555,28.2717337 75.6805269,29.6228207 75.3548714,30.8202663 C75.0280143,32.017712 74.5479429,33.0346141 73.9134555,33.8691793 C73.2795689,34.7031467 72.4954723,35.3470054 71.5611655,35.7995598 C70.6268588,36.2503207 69.5561613,36.4774946 68.3526782,36.4774946 C67.8407622,36.4774946 67.3666992,36.4266793 66.9304891,36.3238533 C66.4954807,36.2234185 66.0700857,36.0643967 65.6537034,35.8473859 C65.2379218,35.630375 64.8251445,35.3565707 64.4147706,35.025375 C64.0043966,34.6941793 63.5693882,34.3049946 63.1091445,33.8596141 L63.1091445,42.4593424 C63.1091445,42.5621685 63.0827076,42.6506467 63.0328378,42.7271685 C62.9811655,42.8036902 62.8976487,42.8676576 62.7822874,42.9184728 C62.6669261,42.9686902 62.5065017,43.0075489 62.3016151,43.0332554 C62.0973294,43.0583641 61.8347622,43.0715163 61.5145143,43.0715163 C61.2074849,43.0715163 60.9503252,43.0583641 60.7460395,43.0332554 C60.5411529,43.0075489 60.3783252,42.9686902 60.2563546,42.9184728 C60.134384,42.8676576 60.0514681,42.8036902 60.0070059,42.7271685 C59.9619429,42.6506467 59.9397118,42.5621685 59.9397118,42.4593424 L59.9397118,18.4357011 C59.9397118,18.3209185 59.9589387,18.2282554 59.9973924,18.1583098 C60.0358462,18.0877663 60.1121529,18.0279837 60.2281151,17.9771685 C60.3428756,17.9263533 60.4900815,17.8910815 60.6691319,17.8719511 C60.8481824,17.8522228 61.0662874,17.8426576 61.3228462,17.8426576 C61.5920227,17.8426576 61.8119303,17.8522228 61.9855731,17.8719511 C62.1580143,17.8910815 62.3016151,17.9263533 62.4169765,17.9771685 C62.5323378,18.0279837 62.6128504,18.0877663 62.6579134,18.1583098 C62.7017748,18.2282554 62.7240059,18.3209185 62.7240059,18.4357011 L62.7240059,20.7480924 C63.250342,20.2136359 63.7550479,19.7485272 64.2423294,19.3527663 C64.7284092,18.9582011 65.2180941,18.6305924 65.711384,18.3687446 C66.2040731,18.1080924 66.7105815,17.9096141 67.2285059,17.7768967 C67.7482328,17.6423859 68.2955983,17.5760272 68.8712034,17.5760272 C70.1269597,17.5760272 71.1964555,17.8175489 72.0784891,18.301788 C72.9635269,18.7860272 73.6827328,19.4484185 74.2409134,20.2895598 C74.7972916,21.1307011 75.2034597,22.1087446 75.4600185,23.2230924 C75.7159765,24.338038 75.8439555,25.5199402 75.8439555,26.7682011" id="Fill-1" fill="#292A39"></path><path d="M90.2047004,25.3543424 C90.2431542,23.6977663 89.8724357,22.3980924 89.0931458,21.4553207 C88.313255,20.5125489 87.1572382,20.0408641 85.6244945,20.0408641 C84.8379945,20.0408641 84.1488307,20.1879293 83.5570029,20.4802663 C82.9633727,20.7737989 82.4682803,21.1611902 82.0681206,21.6454293 C81.6685618,22.1308641 81.359129,22.6940163 81.1404231,23.337875 C80.9211164,23.9811359 80.798545,24.6530924 80.7733097,25.3543424 L90.2047004,25.3543424 Z M93.3939609,26.290538 C93.3939609,26.7879293 93.2677845,27.1412446 93.017234,27.3510815 C92.7666836,27.5615163 92.4800828,27.6667337 92.1580324,27.6667337 L80.7733097,27.6667337 C80.7733097,28.6220598 80.8694441,29.4823315 81.0629147,30.2469511 C81.2551836,31.010375 81.577234,31.6673859 82.0272634,32.2155924 C82.4778937,32.7632011 83.0631122,33.1840707 83.7841206,33.4776033 C84.505129,33.7699402 85.3865618,33.9164076 86.4296206,33.9164076 C87.252171,33.9164076 87.9863979,33.8500489 88.6292971,33.7161359 C89.2727971,33.5822228 89.8285744,33.4327663 90.2984315,33.2665707 C90.7682887,33.1015707 91.1540282,32.9509185 91.4568517,32.8176033 C91.7602761,32.6830924 91.9879945,32.6173315 92.1424105,32.6173315 C92.2331374,32.6173315 92.3124483,32.6394511 92.3839483,32.6830924 C92.4542466,32.7285272 92.5095239,32.7954837 92.5473769,32.883962 C92.5858307,32.9736359 92.6152718,33.0985815 92.6344987,33.2570054 C92.6531248,33.4160272 92.6627382,33.6109185 92.6627382,33.8398859 C92.6627382,34.0054837 92.6567298,34.148962 92.644713,34.2697228 C92.6314945,34.3916793 92.6152718,34.4998859 92.5966458,34.5949402 C92.5768181,34.6905924 92.5449735,34.7766793 92.5005113,34.8532011 C92.4548475,34.9297228 92.3971668,35.0026576 92.3274693,35.0732011 C92.257171,35.1425489 92.0492803,35.2579293 91.7025954,35.4169511 C91.3571122,35.5765707 90.9082845,35.7320054 90.3585155,35.8850489 C89.8069441,36.0380924 89.1706542,36.1755924 88.4478433,36.2957554 C87.7232298,36.4171141 86.9517508,36.4774946 86.1316038,36.4774946 C84.7112172,36.4774946 83.4662761,36.2808098 82.3961794,35.8850489 C81.3272845,35.4898859 80.4272256,34.9034185 79.6978055,34.1262446 C78.9665828,33.3496685 78.4156122,32.3746141 78.0454945,31.2016793 C77.6747761,30.030538 77.4891164,28.6674946 77.4891164,27.1119511 C77.4891164,25.634125 77.6807845,24.3069511 78.0647214,23.1268424 C78.4486584,21.9497228 79.003234,20.9483641 79.726045,20.1275489 C80.4494567,19.3049402 81.3242803,18.6748315 82.3481122,18.2348315 C83.3731458,17.7948315 84.5189483,17.5760272 85.7867214,17.5760272 C87.1434189,17.5760272 88.2994357,17.7924402 89.2535702,18.2252663 C90.2071038,18.6580924 90.9930029,19.2415707 91.6070618,19.9745054 C92.2217214,20.7074402 92.6729525,21.5671141 92.9613559,22.5547228 C93.2497592,23.5417337 93.3939609,24.5957011 93.3939609,25.7172228 L93.3939609,26.290538 Z" id="Fill-3" fill="#292A39"></path><path d="M106.120961,27.8006467 L103.412373,27.8006467 C102.541154,27.8006467 101.786499,27.8741793 101.146604,28.0200489 C100.504906,28.1671141 99.9737634,28.384125 99.5513727,28.6698859 C99.1289819,28.9568424 98.8183475,29.3011902 98.6194693,29.7017337 C98.4217929,30.102875 98.3214525,30.5655924 98.3214525,31.0886902 C98.3214525,31.9806467 98.6068517,32.6902663 99.1770492,33.2187446 C99.7466458,33.7472228 100.543961,34.0126576 101.567793,34.0126576 C102.401158,34.0126576 103.172637,33.8022228 103.882831,33.3813533 C104.594226,32.9610815 105.339868,32.3172228 106.120961,31.450375 L106.120961,27.8006467 Z M109.270566,35.6560815 C109.270566,35.8085272 109.219495,35.9233098 109.117352,35.9998315 C109.014608,36.0763533 108.874011,36.1331467 108.695562,36.1720054 C108.51531,36.2102663 108.253343,36.2293967 107.907259,36.2293967 C107.574394,36.2293967 107.308822,36.2102663 107.109944,36.1720054 C106.911066,36.1331467 106.766864,36.0763533 106.67794,35.9998315 C106.588415,35.9233098 106.543953,35.8085272 106.543953,35.6560815 L106.543953,33.935538 C105.787495,34.7384185 104.946318,35.3631467 104.017419,35.8085272 C103.089121,36.2545054 102.106747,36.4774946 101.069095,36.4774946 C100.158822,36.4774946 99.3374735,36.3597228 98.6008433,36.1241793 C97.864213,35.8886359 97.2375366,35.547875 96.7190113,35.1018967 C96.1992845,34.6553207 95.7961206,34.1083098 95.5083181,33.457875 C95.2193139,32.8086359 95.075713,32.069125 95.075713,31.240538 C95.075713,30.2720598 95.275192,29.4309185 95.670545,28.717712 C96.0683013,28.0051033 96.6384987,27.4120598 97.3805366,26.9409728 C98.1237761,26.4698859 99.0322466,26.1159728 100.108953,25.8792337 C101.184457,25.6436902 102.394549,25.5259185 103.738629,25.5259185 L106.120961,25.5259185 L106.120961,24.1873859 C106.120961,23.5261902 106.050663,22.9397228 105.910066,22.4297772 C105.767667,21.9204293 105.541751,21.4959728 105.227511,21.1593967 C104.913873,20.8210272 104.507705,20.5675489 104.007805,20.3941793 C103.507906,20.2232011 102.893847,20.1365163 102.163826,20.1365163 C101.382734,20.1365163 100.681553,20.2291793 100.060885,20.4145054 C99.4396164,20.5986359 98.895255,20.8030924 98.4278013,21.0254837 C97.9597466,21.2484728 97.5692004,21.4523315 97.2567634,21.6370598 C96.9419231,21.821788 96.7087971,21.9150489 96.5555828,21.9150489 C96.4516374,21.9150489 96.362713,21.8887446 96.2864063,21.8373315 C96.2094987,21.7871141 96.1416038,21.7105924 96.0839231,21.608962 C96.0262424,21.5061359 95.9853853,21.3758098 95.9595492,21.216788 C95.933713,21.0571685 95.9204945,20.8820054 95.9204945,20.6907011 C95.9204945,20.3720598 95.9427256,20.120375 95.9883895,19.9362446 C96.0334525,19.7515163 96.1416038,19.5763533 96.314045,19.4101576 C96.4882887,19.2451576 96.7845029,19.0502663 97.2080954,18.827875 C97.6304861,18.6048859 98.1171668,18.4010272 98.6681374,18.2157011 C99.219108,18.0309728 99.8205492,17.8779293 100.473663,17.7565707 C101.126776,17.6364076 101.786499,17.5760272 102.451629,17.5760272 C103.694167,17.5760272 104.750444,17.7159185 105.621663,17.9957011 C106.492881,18.2754837 107.197066,18.6873859 107.734217,19.2290163 C108.27257,19.7700489 108.663116,20.4420054 108.906457,21.2448859 C109.148595,22.0477663 109.270566,22.983962 109.270566,24.0546685 L109.270566,35.6560815 Z" id="Fill-5" fill="#292A39"></path><path d="M123.228447,19.5637391 C123.228447,19.8441196 123.221838,20.079663 123.209221,20.2709674 C123.196002,20.4622717 123.171368,20.6111304 123.132313,20.719337 C123.095061,20.8281413 123.045792,20.9112391 122.988712,20.9680326 C122.930431,21.0254239 122.849918,21.0541196 122.747775,21.0541196 C122.646233,21.0541196 122.521258,21.0254239 122.374653,20.9680326 C122.226246,20.9112391 122.061015,20.85325 121.874153,20.7958587 C121.688494,20.7384674 121.481204,20.684663 121.250481,20.63325 C121.020359,20.5830326 120.77041,20.5567283 120.501233,20.5567283 C120.180985,20.5567283 119.866746,20.6206957 119.559116,20.7480326 C119.252687,20.8759674 118.928233,21.0864022 118.58996,21.379337 C118.249884,21.6722717 117.894187,22.059663 117.524069,22.5439022 C117.15275,23.0287391 116.742376,23.6217826 116.294149,24.321837 L116.294149,35.6362935 C116.294149,35.7391196 116.268313,35.8252065 116.217842,35.8951522 C116.16617,35.9650978 116.082653,36.0260761 115.968494,36.0762935 C115.851931,36.1277065 115.691506,36.1647717 115.488422,36.1910761 C115.282334,36.215587 115.020368,36.229337 114.70012,36.229337 C114.392489,36.229337 114.135931,36.215587 113.932246,36.1910761 C113.726758,36.1647717 113.563931,36.1277065 113.44196,36.0762935 C113.319989,36.0260761 113.236473,35.9650978 113.192011,35.8951522 C113.147548,35.8252065 113.125317,35.7391196 113.125317,35.6362935 L113.125317,18.4356413 C113.125317,18.3340109 113.143943,18.2479239 113.182998,18.1773804 C113.221452,18.1080326 113.297758,18.0434674 113.413721,17.9860761 C113.529082,17.9286848 113.675086,17.8910217 113.854737,17.8718913 C114.034389,17.852163 114.27112,17.8425978 114.565532,17.8425978 C114.847926,17.8425978 115.081053,17.852163 115.266712,17.8718913 C115.451771,17.8910217 115.597174,17.9286848 115.699317,17.9860761 C115.800859,18.0434674 115.874162,18.1080326 115.919826,18.1773804 C115.964889,18.2479239 115.98712,18.3340109 115.98712,18.4356413 L115.98712,20.939337 C116.460582,20.2506413 116.905805,19.6910761 117.322788,19.2570543 C117.737968,18.8242283 118.131519,18.4834674 118.502838,18.2347717 C118.874758,17.9860761 119.243074,17.8139022 119.607784,17.71825 C119.973695,17.6237935 120.340809,17.5759674 120.711527,17.5759674 C120.878561,17.5759674 121.066624,17.5849348 121.279321,17.6034674 C121.490817,17.6237935 121.711326,17.6584674 121.942048,17.7086848 C122.172771,17.7600978 122.37946,17.8174891 122.565721,17.8814565 C122.751981,17.9454239 122.882964,18.0087935 122.959872,18.0727609 C123.036779,18.1355326 123.08725,18.1965109 123.112485,18.2539022 C123.138922,18.3106957 123.160553,18.3842283 123.180981,18.4739022 C123.199607,18.5623804 123.212826,18.6933043 123.218233,18.8648804 C123.226044,19.0376522 123.228447,19.2702065 123.228447,19.5637391" id="Fill-7" fill="#292A39"></path><path d="M128.04238,35.6362935 C128.04238,35.7391196 128.017145,35.8252065 127.966074,35.8951522 C127.914401,35.9650978 127.830884,36.0260761 127.716124,36.0762935 C127.600162,36.1277065 127.439737,36.1647717 127.236053,36.1910761 C127.030565,36.215587 126.767998,36.229337 126.44775,36.229337 C126.140721,36.229337 125.884162,36.215587 125.679876,36.1910761 C125.474389,36.1647717 125.311561,36.1277065 125.18959,36.0762935 C125.068221,36.0260761 124.985305,35.9650978 124.939641,35.8951522 C124.895779,35.8252065 124.874149,35.7391196 124.874149,35.6362935 L124.874149,10.1019457 C124.874149,10.0003152 124.895779,9.91183696 124.939641,9.83471739 C124.985305,9.75879348 125.068221,9.69482609 125.18959,9.64341304 C125.311561,9.59319565 125.474389,9.55493478 125.679876,9.52922826 C125.884162,9.50352174 126.140721,9.49036957 126.44775,9.49036957 C126.767998,9.49036957 127.030565,9.50352174 127.236053,9.52922826 C127.439737,9.55493478 127.600162,9.59319565 127.716124,9.64341304 C127.830884,9.69482609 127.914401,9.75879348 127.966074,9.83471739 C128.017145,9.91183696 128.04238,10.0003152 128.04238,10.1019457 L128.04238,35.6362935 Z" id="Fill-9" fill="#292A39"></path><path d="M142.787002,30.9538804 C142.787002,31.8332826 142.622973,32.6176304 142.296716,33.3045326 C141.969859,33.9926304 141.50541,34.5731196 140.903968,35.0442065 C140.301326,35.5158913 139.585124,35.8733913 138.752359,36.1143152 C137.920195,36.3564348 137.005116,36.4777935 136.005918,36.4777935 C135.391258,36.4777935 134.805439,36.4299674 134.24846,36.3337174 C133.691481,36.2380652 133.192183,36.1167065 132.749964,35.970837 C132.308347,35.8255652 131.934624,35.6725217 131.626393,35.5123043 C131.318162,35.3532826 131.094649,35.211 130.954653,35.0824674 C130.813456,34.9545326 130.710712,34.7769783 130.646422,34.5480109 C130.582733,34.3184457 130.550889,34.0057826 130.550889,33.6112174 C130.550889,33.3685 130.563506,33.1652391 130.589342,32.9990435 C130.615179,32.8340435 130.646422,32.7001304 130.685477,32.5973043 C130.723931,32.4956739 130.777405,32.4227391 130.848305,32.3785 C130.918603,32.333663 130.999116,32.3115435 131.08804,32.3115435 C131.229237,32.3115435 131.437128,32.3964348 131.712313,32.5698043 C131.988099,32.7407826 132.327574,32.9296957 132.731338,33.1329565 C133.134502,33.3368152 133.610368,33.5245326 134.161338,33.6967065 C134.712309,33.8694783 135.345595,33.9555652 136.063599,33.9555652 C136.601952,33.9555652 137.088032,33.8969783 137.52304,33.7827935 C137.95925,33.6686087 138.335977,33.4994239 138.656225,33.2764348 C138.976473,33.0528478 139.223418,32.7706739 139.395859,32.4263261 C139.568901,32.0819783 139.655422,31.6742609 139.655422,31.2019783 C139.655422,30.7177391 139.531649,30.3112174 139.2823,29.9800217 C139.032351,29.6482283 138.701889,29.3552935 138.292116,29.1000217 C137.882342,28.8459457 137.420897,28.6193696 136.908981,28.4214891 C136.395863,28.2242065 135.868926,28.0173587 135.324565,27.8009457 C134.779603,27.5839348 134.24846,27.3394239 133.731137,27.0644239 C133.210809,26.7906196 132.74696,26.4570326 132.337187,26.0612717 C131.926813,25.6667065 131.597553,25.1944239 131.347603,24.647413 C131.098254,24.0992065 130.973279,23.4427935 130.973279,22.6781739 C130.973279,22.0032283 131.104863,21.3563804 131.36683,20.7382283 C131.628796,20.1200761 132.022947,19.5784457 132.548683,19.113337 C133.073216,18.6500217 133.731137,18.2757826 134.517036,17.996 C135.304737,17.7162174 136.224023,17.5763261 137.27309,17.5763261 C137.735137,17.5763261 138.195981,17.6133913 138.656225,17.689913 C139.117069,17.7664348 139.534053,17.8614891 139.905372,17.9768696 C140.276691,18.0916522 140.593334,18.216 140.856502,18.349913 C141.119069,18.4832283 141.316746,18.601 141.451935,18.7026304 C141.585922,18.8054565 141.675447,18.893337 141.71991,18.9716522 C141.764973,19.0469783 141.797418,19.1324674 141.816044,19.2287174 C141.835872,19.3243696 141.855099,19.4421413 141.873725,19.5820326 C141.893553,19.7219239 141.903166,19.8946957 141.903166,20.0973587 C141.903166,20.3149674 141.893553,20.5026848 141.873725,20.6623043 C141.855099,20.8207283 141.823254,20.95225 141.778792,21.0538804 C141.733128,21.1561087 141.679053,21.2296413 141.614763,21.2738804 C141.549872,21.3181196 141.480775,21.3402391 141.403267,21.3402391 C141.288506,21.3402391 141.122674,21.2702935 140.903968,21.1304022 C140.687065,20.9905109 140.40467,20.8410543 140.058586,20.680837 C139.713704,20.522413 139.306334,20.3717609 138.839481,20.2318696 C138.372027,20.0913804 137.837279,20.0220326 137.235838,20.0220326 C136.697485,20.0220326 136.224023,20.0830109 135.813649,20.2025761 C135.404477,20.3245326 135.068006,20.4967065 134.805439,20.7190978 C134.542271,20.9426848 134.344595,21.2069239 134.209405,21.5130109 C134.076019,21.8185 134.008124,22.1502935 134.008124,22.5065978 C134.008124,23.0039891 134.136103,23.4212717 134.392061,23.7584457 C134.64862,24.0956196 134.981485,24.3921413 135.391258,24.647413 C135.801032,24.902087 136.268485,25.1316522 136.794221,25.334913 C137.318754,25.5381739 137.852901,25.7504022 138.397263,25.9656196 C138.941624,26.1826304 139.479376,26.4241522 140.010519,26.6919783 C140.541662,26.9598043 141.012721,27.2850217 141.423095,27.6664348 C141.832868,28.0490435 142.16333,28.5081739 142.412078,29.0432283 C142.661426,29.5782826 142.787002,30.2155652 142.787002,30.9538804" id="Fill-11" fill="#292A39"></path><g id="Group-15" transform="translate(0.000000, 0.345783)"><mask id="mask-2" fill="white"><use xlink:href="#path-1"></use></mask><g id="Clip-14"></g><path d="M54.4231563,27.3275272 C54.4231563,42.2803533 42.2399168,54.4024728 27.2116983,54.4024728 C12.182879,54.4024728 0.000240336134,42.2803533 0.000240336134,27.3275272 C0.000240336134,12.3741033 12.182879,0.251983696 27.2116983,0.251983696 C42.2399168,0.251983696 54.4231563,12.3741033 54.4231563,27.3275272" id="Fill-13" fill="#FFCD06" mask="url(#mask-2)"></path></g><path d="M32.7121513,37.4922446 L29.6118151,37.4922446 L29.6118151,28.6246902 L32.7121513,28.6246902 L33.6302353,28.6246902 C34.6835084,28.6246902 35.5577311,28.7257228 36.2535042,28.9265924 C36.9498782,29.1280598 37.5266849,29.422788 37.9887311,29.811375 C38.4507773,30.2005598 38.8016681,30.6794185 39.0420042,31.2503424 C39.2823403,31.8212663 39.4031092,32.4818641 39.4031092,33.2327337 C39.4031092,33.9339837 39.2793361,34.5497446 39.0323908,35.0800163 C38.7854454,35.6120815 38.4435672,36.0562663 38.007958,36.4125707 C37.5729496,36.768875 37.0688445,37.0378967 36.4962437,37.2196359 C35.9248445,37.401375 35.2555084,37.4922446 34.4888361,37.4922446 L32.7121513,37.4922446 Z M32.7121513,17.8147989 L33.0822689,17.8147989 C34.0442143,17.8147989 34.8174958,17.9062663 35.4027143,18.0868098 C35.9873319,18.2685489 36.4619958,18.5303967 36.8255042,18.8747446 C37.1896134,19.2172989 37.4557857,19.6357772 37.6246218,20.1283859 C37.7940588,20.6215924 37.8781765,21.1715924 37.8781765,21.781375 C37.8781765,22.3253967 37.7976639,22.853875 37.6348361,23.366212 C37.4720084,23.8779511 37.2154496,24.3257228 36.8645588,24.7077337 C36.5136681,25.0903424 36.0714496,25.3952337 35.5385042,25.6218098 C35.0061597,25.8483859 34.3043782,25.9619728 33.4337605,25.9619728 L32.7121513,25.9619728 L29.6118151,25.9619728 L29.6118151,17.8147989 L32.7121513,17.8147989 Z M42.5497101,30.6865924 C42.2883445,29.9733859 41.9338487,29.3516467 41.4838193,28.8201793 C41.0343908,28.2881141 40.5098571,27.8505054 39.9108193,27.5067554 C39.3117815,27.1642011 38.666479,26.9280598 37.9767143,26.7977337 C38.523479,26.5639837 39.008958,26.2662663 39.4325504,25.9033859 C39.855542,25.5411033 40.2070336,25.1292011 40.4876261,24.6682772 C40.7670168,24.2091467 40.9785126,23.706375 41.1227143,23.1617554 C41.2657143,22.6171359 41.3372143,22.0468098 41.3372143,21.4501793 C41.3372143,20.4524076 41.1743866,19.557462 40.8487311,18.7671359 C40.5230756,17.9768098 40.0381975,17.309038 39.392895,16.7644185 C38.7475924,16.2209946 37.9436681,15.8061033 36.9799202,15.5203424 C36.0161723,15.2351793 34.7784412,15.0928967 33.2661261,15.0928967 L30.6206261,15.0928967 L27.5977983,15.0928967 L27.5220924,15.0928967 C27.2222731,15.0928967 26.9386765,15.1933315 26.6713025,15.3942011 C26.4045294,15.5950707 26.2711429,15.9483859 26.2711429,16.4535489 L26.2711429,17.8147989 L26.2711429,25.9619728 L24.0666597,25.9619728 L20.9669244,25.9619728 C20.0957059,25.9619728 19.3945252,25.8483859 18.860979,25.6218098 C18.3286345,25.3952337 17.8870168,25.0903424 17.5355252,24.7077337 C17.1846345,24.3257228 16.9274748,23.8779511 16.7652479,23.366212 C16.6024202,22.853875 16.5213067,22.3253967 16.5213067,21.781375 C16.5213067,21.1715924 16.6060252,20.6215924 16.7748613,20.1283859 C16.9436975,19.6357772 17.2110714,19.2172989 17.5745798,18.8747446 C17.9386891,18.5303967 18.4127521,18.2685489 18.9973697,18.0868098 C19.5825882,17.9062663 20.3552689,17.8147989 21.318416,17.8147989 L24.4169496,17.8147989 L24.498063,17.8147989 L24.498063,15.0928967 L24.2330924,15.0928967 L21.1333571,15.0928967 C19.6222437,15.0928967 18.3845126,15.2351793 17.4201639,15.5203424 C16.4570168,15.8061033 15.6518908,16.2209946 15.0077899,16.7644185 C14.3618866,17.309038 13.8764076,17.9768098 13.5507521,18.7671359 C13.2256975,19.557462 13.0622689,20.4524076 13.0622689,21.4501793 C13.0622689,22.0468098 13.1337689,22.6171359 13.2767689,23.1617554 C13.4215714,23.706375 13.6324664,24.2091467 13.9118571,24.6682772 C14.1924496,25.1292011 14.544542,25.5411033 14.9675336,25.9033859 C15.3911261,26.2662663 15.8760042,26.5639837 16.4233697,26.7977337 C15.7330042,26.9280598 15.0877017,27.1642011 14.4892647,27.5067554 C13.8902269,27.8505054 13.3656933,28.2881141 12.9156639,28.8201793 C12.4662353,29.3516467 12.1111387,29.9733859 11.8503739,30.6865924 C11.5902101,31.3997989 11.4604286,32.1835489 11.4604286,33.039038 C11.4604286,33.829962 11.5613697,34.558712 11.7632521,35.2270815 C11.9651345,35.8948533 12.2487311,36.493875 12.614042,37.0259402 C12.9769496,37.5568098 13.4173655,38.0231141 13.9322857,38.4254511 C14.446605,38.8271902 15.026416,39.1637663 15.6711176,39.436375 C16.3158193,39.7089837 17.0073866,39.9122446 17.7422143,40.0485489 C18.4788445,40.1848533 19.3224244,40.2524076 20.2741555,40.2524076 L23.3732899,40.2524076 L24.498063,40.2524076 L24.498063,37.4922446 L23.0121849,37.4922446 L19.9118487,37.4922446 C19.1451765,37.4922446 18.4758403,37.401375 17.9032395,37.2196359 C17.3306387,37.0378967 16.8271345,36.768875 16.3921261,36.4125707 C15.955916,36.0562663 15.6146387,35.6120815 15.3670924,35.0800163 C15.1207479,34.5497446 14.9963739,33.9339837 14.9963739,33.2327337 C14.9963739,32.4818641 15.1177437,31.8212663 15.3586807,31.2503424 C15.598416,30.6794185 15.9493067,30.2005598 16.4113529,29.811375 C16.8727983,29.422788 17.4514076,29.1280598 18.1471807,28.9265924 C18.8429538,28.7257228 19.7165756,28.6246902 20.7698487,28.6246902 L23.8689832,28.6246902 L26.2711429,28.6246902 L26.2711429,37.4922446 L26.2711429,38.8917554 C26.2711429,39.3969185 26.4045294,39.7502337 26.6713025,39.9517011 C26.9386765,40.1531685 27.2222731,40.2524076 27.5220924,40.2524076 L27.5977983,40.2524076 L30.6206261,40.2524076 L34.1265294,40.2524076 C35.0770588,40.2524076 35.9206387,40.1848533 36.6572689,40.0485489 C37.3932983,39.9122446 38.0842647,39.7089837 38.7283655,39.436375 C39.3730672,39.1637663 39.9528782,38.8271902 40.4677983,38.4254511 C40.9827185,38.0231141 41.4225336,37.5568098 41.7872437,37.0259402 C42.1513529,36.493875 42.4349496,35.8948533 42.6374328,35.2270815 C42.8393151,34.558712 42.9402563,33.829962 42.9402563,33.039038 C42.9402563,32.1835489 42.8098739,31.3997989 42.5497101,30.6865924 L42.5497101,30.6865924 Z" id="Fill-16" fill="#FFFFFF"></path></g></g></g></g></svg> 